<svg id="Layer_1" data-name="Layer 1" xmlns="http://www.w3.org/2000/svg" viewBox="0 0 37 37"><defs><style>.cls-1{fill:#232021;}</style></defs><title>Artboard 4 copy 3</title><path class="cls-1" d="M19.44,24.51c.78,5.45,3.78,9.14,9.15,11.26H9c5.29-1.87,8.38-5.53,9-11.52-.5.7-.79,1.16-1.13,1.58A8.89,8.89,0,0,1,6.44,28.36a8.46,8.46,0,0,1-5.12-9,8.57,8.57,0,0,1,7.45-7.21c.65-.1.78-.26.68-.89A8,8,0,0,1,13,2.85a8.43,8.43,0,0,1,9.41-.36,8.12,8.12,0,0,1,4.29,8.09c0,.66-.14,1,.81,1.08a8.45,8.45,0,0,1,3.14,16.19,8.93,8.93,0,0,1-10.54-2.42C19.91,25.13,19.68,24.82,19.44,24.51Z"/></svg>