<svg id="Layer_1" data-name="Layer 1" xmlns="http://www.w3.org/2000/svg" viewBox="0 0 37 37"><defs><style>.cls-1{fill:#232021;}</style></defs><title>Artboard 4 copy 2</title><path class="cls-1" d="M32.42,25a7.36,7.36,0,0,1-5.34,3.7,7.25,7.25,0,0,1-6.29-2.51c-.42-.44-.81-.93-1.26-1.45-.8,4.13,3.08,8.89,9.68,12H7.79c6.6-3.1,10.48-7.86,9.68-12-.45.52-.84,1-1.26,1.45a7.25,7.25,0,0,1-6.29,2.51A7.36,7.36,0,0,1,4.58,25C1.45,19.72,2.65,14,7.65,10.53,8.8,9.75,10,9,11.18,8.27A20.3,20.3,0,0,0,18.47.36l0-.06,0,.06a20.3,20.3,0,0,0,7.29,7.91C27,9,28.2,9.75,29.35,10.53,34.35,14,35.55,19.72,32.42,25Z"/></svg>